Coordinates
version=1
nRows=7
nColumns=33
inDegrees=yes

Units are S.I. units (second, meters, Newtons, ...)
Angles are in degrees.

endheader
time	ground_thorax_rot_x	ground_thorax_rot_y	ground_thorax_rot_z	ground_thorax_tx	ground_thorax_ty	ground_thorax_tz	clav_prot_r	clav_elev_r	scapula_abduction_r	scapula_elevation_r	scapula_upward_rot_r	scapula_winging_r	shoulder_elv_r	plane_of_elev_r	axial_rot_r	elbow_flexion_r	pro_sup_r	wrist_flex_r	wrist_dev_r	clav_prot_l	clav_elev_l	scapula_abduction_l	scapula_elevation_l	scapula_upward_rot_l	scapula_winging_l	shoulder_elv_l	plane_of_elev_l	axial_rot_l	elbow_flexion_l	pro_sup_l	wrist_flex_l	wrist_dev_l
      6.15000000	    -39.77285519	    -11.30746217	     11.70017706	   -198.04435940	    837.39535017	    -11.13115100	      4.24807511	    -45.00000000	     35.71018236	    -45.00000000	    -14.11709690	   1690.32403891	   -291.76766545	     21.52673880	   -179.99999979	    725.22554184	    280.21505515	     20.16314957	      9.51226495	     15.04311413	     38.21661919	    -34.73846650	    -45.00000000	    -45.00000000	   -637.19215690	  -3529.41461076	     17.85601363	    -51.58366779	     11.66089317	     44.39932575	      6.96195393	    -21.89936829
      6.16000000	    -39.90956704	    -10.81901527	     11.23397686	   -197.58885731	    838.71707603	    -11.10832879	      4.19502895	    -45.00000000	     35.68047690	    -45.00000000	    -13.53509132	   1690.36296655	   -291.88032519	     21.59295048	   -179.99999979	    725.10743052	    280.95519720	     20.39302085	      9.55955785	     15.21718217	     38.21009909	    -35.31126593	    -45.00000000	    -45.00000000	   -636.86141052	  -3529.64667928	     18.13502732	    -51.29698319	     11.58954750	     44.86389822	      6.40182876	    -22.05613599
      6.17000000	    -39.93174836	    -10.92764445	     11.27152152	   -197.09526384	    840.16238396	    -11.09081146	      3.90051633	    -45.00000000	     35.71040438	    -45.00000000	    -13.10980668	   1690.52467166	   -291.59843828	     21.52684328	   -179.99999979	    725.16661470	    281.71991832	     20.46219529	      9.42991647	     15.23581484	     38.26400860	    -35.19252815	    -45.00000000	    -45.00000000	   -636.95177618	  -3529.26625121	     18.07326422	    -51.05125828	     11.87577299	     45.41751527	      6.77117136	    -21.98557074
      6.18000000	    -39.97533728	    -10.61276534	     10.97154366	   -196.55715104	    841.73032967	    -11.08024982	      3.98634258	    -45.00000000	     35.77721290	    -45.00000000	    -12.85026407	   1690.62962543	   -291.63130039	     21.62970927	   -179.99999979	    725.03990216	    282.50549328	     20.70430198	      9.46219923	     15.10524727	     38.15516977	    -35.50449176	    -45.00000000	    -45.00000000	   -636.81464106	  -3529.36340469	     18.31112361	    -50.59264320	     11.79885464	     45.89970530	      6.21309317	    -22.07886662
      6.19000000	    -39.99213176	    -10.58140559	     10.88606249	   -195.96732595	    843.42313805	    -11.07657909	      3.83269062	    -45.00000000	     35.99895889	    -45.00000000	    -12.17681506	   1690.65653162	   -291.39245462	     21.60606395	   -179.99999979	    725.06805563	    283.25565280	     20.82862052	      9.33612193	     15.20498730	     38.21682148	    -35.56782170	    -45.00000000	    -45.00000000	   -636.75804404	  -3529.09935986	     18.35092927	    -50.39868071	     12.06397735	     46.47003126	      6.55420434	    -22.08773847
      6.20000000	    -40.01198798	    -10.35321888	     10.65807195	   -195.31851006	    845.24366769	    -11.07743553	      3.85144185	    -45.00000000	     36.25460038	    -45.00000000	    -11.61560178	   1690.64617286	   -291.27658467	     21.64590652	   -179.99999979	    724.94840765	    284.04954319	     21.00059207	      9.35569171	     15.05081425	     38.11195710	    -35.85522799	    -45.00000000	    -45.00000000	   -636.64670637	  -3529.06203787	     18.48943490	    -49.86999176	     12.09683873	     46.97409086	      6.06685081	    -22.11729674
      6.21000000	    -40.09377750	    -10.09838167	     10.34823537	   -194.60327165	    847.19383406	    -11.07904186	      3.70938218	    -45.00000000	     36.28363684	    -45.00000000	    -10.87538534	   1690.82219158	   -291.16254885	     21.66360343	   -179.99999979	    724.95386864	    284.76667111	     21.23720374	      9.26834655	     15.21953311	     38.16924242	    -36.06739077	    -45.00000000	    -45.00000000	   -636.51927839	  -3528.90056274	     18.69739330	    -49.62024783	     12.23823585	     47.52231660	      6.26664029	    -22.14679556
